HIERARCHY
ROOT Hips
{
	OFFSET 0.000000 0.000000 0.000000
	CHANNELS 6 Xposition Yposition Zposition Zrotation Yrotation Xrotation 
	JOINT LHipJoint
	{
		OFFSET 0.000000 0.000000 0.000000
		CHANNELS 3 Zrotation Yrotation Xrotation
		JOINT LeftUpLeg
		{
			OFFSET 1.363060 -1.794630 0.839290
			CHANNELS 3 Zrotation Yrotation Xrotation
			JOINT LeftLeg
			{
				OFFSET 2.448110 -6.726130 0.000000
				CHANNELS 3 Zrotation Yrotation Xrotation
				JOINT LeftFoot
				{
					OFFSET 2.562200 -7.039590 0.000000
					CHANNELS 3 Zrotation Yrotation Xrotation
					JOINT LeftToeBase
					{
						OFFSET 0.157640 -0.433110 2.322550
						CHANNELS 3 Zrotation Yrotation Xrotation
						End Site
						{
							OFFSET 0.000000 0.000000 0.000000
						}
					}
				}
			}
		}
	}
	JOINT RHipJoint
	{
		OFFSET 0.000000 0.000000 0.000000
		CHANNELS 3 Zrotation Yrotation Xrotation
		JOINT RightUpLeg
		{
			OFFSET -1.305520 -1.794630 0.839290
			CHANNELS 3 Zrotation Yrotation Xrotation
			JOINT RightLeg
			{
				OFFSET -2.542530 -6.985550 0.000000
				CHANNELS 3 Zrotation Yrotation Xrotation
				JOINT RightFoot
				{
					OFFSET -2.568260 -7.056230 0.000000
					CHANNELS 3 Zrotation Yrotation Xrotation
					JOINT RightToeBase
					{
						OFFSET -0.164730 -0.452590 2.363150
						CHANNELS 3 Zrotation Yrotation Xrotation
						End Site
						{
							OFFSET 0.000000 0.000000 0.000000
						}
					}
				}
			}
		}
	}
}
MOTION
Frames: 25
Frame Time: 0.008333
0.145804 17.256872 1.964985 4.145390 -42.442045 15.081733 -8.175462 1.220541 5.684885 -12.043352 -21.394829 -17.501449 -2.512713 -0.986608 6.872333 0.522106 2.167745 -4.969821 0.227100 -0.000000 -23.950000 10.315306 0.480613 4.136482 6.159137 21.032493 -30.078509 -2.382483 -2.642542 60.086309 -5.738619 -34.486776 15.862862 -15.358000 0.000000 -67.701100
0.149236 17.253389 1.974271 3.878375 -41.424774 15.250490 -8.184139 1.176311 5.636135 -11.750212 -21.620367 -17.513427 -2.515245 -0.944710 7.190410 0.434621 1.532577 -5.019972 0.185800 0.000000 -24.509700 10.394136 0.592326 4.081106 6.253157 21.106907 -31.412034 -2.432850 -2.760930 62.661256 -5.479860 -33.142661 18.270151 -15.643000 0.000000 -67.478700
0.152987 17.251043 1.982670 3.582338 -40.439160 15.438636 -8.202564 1.133426 5.588343 -11.421461 -21.810014 -17.544521 -2.511740 -0.903362 7.497954 0.350562 0.914944 -5.051100 0.149400 -0.000001 -25.203500 10.467866 0.702597 4.017024 6.397733 21.111221 -32.825811 -2.485427 -2.885715 65.249810 -5.225378 -31.583257 20.380437 -15.569001 -0.000000 -67.106000
0.157201 17.250091 1.990406 3.260746 -39.487681 15.644983 -8.229517 1.091644 5.546061 -11.055447 -21.984901 -17.598061 -2.500605 -0.862528 7.795683 0.272846 0.336574 -5.062564 0.118301 -0.000000 -25.983999 10.537772 0.810331 3.941478 6.590475 21.038102 -34.324698 -2.548485 -3.021219 67.867755 -4.975044 -29.820685 22.105610 -15.133700 0.000000 -66.570600
0.161869 17.250848 1.997741 2.916757 -38.569513 15.871358 -8.264981 1.050958 5.511544 -10.650226 -22.153455 -17.683093 -2.480997 -0.821443 8.094092 0.202327 -0.194386 -5.052766 0.092100 0.000000 -26.860300 10.604129 0.915597 3.854849 6.829348 20.891339 -35.910276 -2.629333 -3.169448 70.522663 -4.730603 -27.906867 23.410812 -14.391400 -0.000000 -66.058800
0.167320 17.253566 2.004884 2.549059 -37.684657 16.118534 -8.308848 1.010363 5.486438 -10.203690 -22.326705 -17.805374 -2.451915 -0.779696 8.401205 0.140358 -0.667172 -5.026102 0.070200 0.000001 -27.772700 10.666408 1.019168 3.757567 7.109952 20.679842 -37.580189 -2.733914 -3.331509 73.220094 -4.492810 -25.900253 24.287841 -13.413500 0.000000 -65.699400
0.173771 17.258425 2.012115 2.152902 -36.830599 16.391668 -8.363526 0.969481 5.469355 -9.711769 -22.494735 -17.979524 -2.412915 -0.735696 8.736887 0.085453 -1.090926 -4.981066 0.051401 0.000000 -28.791600 10.722542 1.121925 3.653250 7.430111 20.421137 -39.330429 -2.865652 -3.506611 75.957426 -4.263223 -23.870983 24.771097 -12.290199 -0.000000 -65.705800
0.181254 17.265505 2.019571 1.729745 -36.008942 16.691285 -8.428932 0.927163 5.460841 -9.172154 -22.665239 -18.206739 -2.363415 -0.689682 9.106213 0.038831 -1.457277 -4.928015 0.035300 -0.000000 -29.820500 10.771737 1.224593 3.543412 7.781649 20.129856 -41.155846 -3.028146 -3.694615 78.739746 -4.039993 -21.854940 24.883472 -11.080400 -0.000000 -65.932500
0.190139 17.274828 2.027361 1.273443 -35.221064 17.020457 -8.506575 0.881849 5.459289 -8.580573 -22.834970 -18.490380 -2.302843 -0.641536 9.516788 0.000428 -1.767069 -4.875241 0.021600 0.000001 -30.817900 10.811222 1.328404 3.431869 8.156613 19.829460 -43.048178 -3.221957 -3.893678 81.559689 -3.823514 -19.897545 24.694660 -9.854900 0.000000 -66.429600
0.200592 17.286260 2.035679 0.775904 -34.467475 17.385801 -8.599895 0.832545 5.461627 -7.930316 -22.986447 -18.839205 -2.230856 -0.590620 9.981108 -0.031577 -2.034534 -4.826699 0.009400 0.000001 -31.830400 10.837466 1.433909 3.324111 8.548440 19.545027 -45.001020 -3.446724 -4.101462 84.408220 -3.614007 -18.027242 24.282235 -8.665300 -0.000000 -67.171100
0.212842 17.299597 2.044581 0.230357 -33.751378 17.791406 -8.711068 0.777688 5.465816 -7.215621 -23.111683 -19.252774 -2.147001 -0.537424 10.500170 -0.057615 -2.264135 -4.790549 -0.001400 -0.000000 -32.831701 10.847288 1.541759 3.224556 8.946805 19.299222 -47.007485 -3.701771 -4.315741 87.276736 -3.411362 -16.254946 23.723519 -7.543800 0.000000 -68.056700
0.226982 17.314592 2.054080 -0.366454 -33.077304 18.238661 -8.840615 0.715586 5.471140 -6.431262 -23.214255 -19.719556 -2.050715 -0.483447 11.060701 -0.076762 -2.448458 -4.773548 -0.010400 -0.000001 -33.762401 10.838196 1.652805 3.136611 9.337302 19.112257 -49.058712 -3.986062 -4.534172 90.155232 -3.215946 -14.582450 23.096204 -6.508900 -0.000001 -68.999500
0.243259 17.330919 2.064209 -1.022815 -32.447548 18.731707 -8.990802 0.644946 5.475750 -5.571412 -23.285259 -20.234410 -1.941742 -0.429395 11.656012 -0.089833 -2.593562 -4.778914 -0.017700 -0.000000 -34.636900 10.807096 1.767399 3.064204 9.707174 19.000495 -51.148858 -4.298371 -4.754261 93.032943 -3.028296 -13.003833 22.471731 -5.567500 0.000000 -69.924600
0.261774 17.348200 2.075053 -1.742220 -31.863809 19.272369 -9.162690 0.564792 5.478951 -4.631711 -23.322985 -20.786376 -1.820066 -0.376357 12.272469 -0.097022 -2.700036 -4.808541 -0.023100 0.000001 -35.452200 10.751742 1.885895 3.009784 10.041642 18.973253 -53.272508 -4.637653 -4.973551 95.899179 -2.848925 -11.508105 21.906974 -4.716000 -0.000000 -70.762900
0.282523 17.366152 2.086595 -2.524892 -31.326875 19.859490 -9.355850 0.474558 5.481092 -3.609933 -23.333727 -21.358712 -1.685844 -0.325574 12.889616 -0.097832 -2.761671 -4.861303 -0.026500 -0.000000 -36.192400 10.671156 2.008592 2.973899 10.322980 19.031640 -55.423045 -5.002987 -5.189824 98.743520 -2.677956 -10.080175 21.441685 -3.943800 -0.000000 -71.461700
0.305824 17.384441 2.099045 -3.377639 -30.832750 20.495614 -9.572539 0.374032 5.481373 -2.502688 -23.308179 -21.946035 -1.539480 -0.276945 13.501645 -0.093903 -2.791004 -4.935981 -0.028300 0.000000 -36.894700 10.563003 2.134962 2.956982 10.540207 19.170458 -57.597188 -5.393066 -5.400660 101.553882 -2.515391 -8.707264 21.097787 -3.237699 0.000000 -71.990300
0.331723 17.402878 2.112487 -4.298232 -30.377549 21.177011 -9.811844 0.263549 5.480930 -1.311064 -23.254598 -22.532192 -1.381525 -0.230902 14.090912 -0.084958 -2.783330 -5.028241 -0.028501 0.000000 -37.549200 10.427272 2.264731 2.956569 10.676269 19.374847 -59.788799 -5.806446 -5.603991 104.318232 -2.360809 -7.376495 20.880182 -2.582400 -0.000000 -72.338900
0.360459 17.421280 2.127155 -5.288044 -29.953223 21.902082 -10.075166 0.143749 5.479892 -0.034854 -23.168325 -23.110458 -1.212649 -0.186693 14.652610 -0.072402 -2.748822 -5.132992 -0.027700 0.000000 -38.182600 10.262678 2.396718 2.969952 10.721890 19.625519 -61.992514 -6.240508 -5.797381 107.020595 -2.213899 -6.081445 20.780798 -1.965800 0.000000 -72.520000
0.392059 17.439664 2.143038 -6.338247 -29.554263 22.661815 -10.359418 0.016020 5.480533 1.317480 -23.066765 -23.662804 -1.033757 -0.144337 15.168636 -0.055099 -2.674928 -5.242113 -0.025800 0.000000 -38.760301 10.071466 2.530385 2.992026 10.657415 19.894874 -64.200300 -6.692468 -5.979147 109.646893 -2.074111 -4.817244 20.780568 -1.376800 -0.000000 -72.552200
0.426708 17.458016 2.160379 -7.447246 -29.170378 23.453078 -10.666162 -0.118413 5.482681 2.742797 -22.940482 -24.189431 -0.845715 -0.102277 15.643145 -0.034882 -2.575801 -5.348311 -0.023500 0.000000 -39.318200 9.852903 2.663848 3.019007 10.477003 20.155795 -66.405414 -7.156886 -6.146747 112.174854 -1.941607 -3.589061 20.859050 -0.811000 0.000000 -72.477300
0.464735 17.476417 2.179291 -8.611830 -28.793139 24.269547 -10.995543 -0.258286 5.486698 4.233328 -22.787571 -24.686042 -0.649283 -0.059251 16.075836 -0.012494 -2.456102 -5.442595 -0.021100 0.000000 -39.863200 9.607604 2.795395 3.046306 10.173048 20.379090 -68.598673 -7.627237 -6.298263 114.583894 -1.816953 -2.406938 20.996687 -0.267999 -0.000000 -72.344800
0.506008 17.495037 2.199656 -9.818018 -28.417461 25.100435 -11.344324 -0.401716 5.493679 5.774307 -22.616643 -25.145291 -0.445715 -0.014691 16.461058 0.012692 -2.308771 -5.514674 -0.018800 0.000000 -40.377300 9.338922 2.923984 3.069735 9.729479 20.533940 -70.770285 -8.095039 -6.432323 116.848875 -1.701026 -1.282564 21.177219 0.250301 0.000000 -72.207000
0.550984 17.513860 2.221761 -11.071653 -28.034749 25.946010 -11.718493 -0.549044 5.500538 7.364764 -22.394272 -25.578728 -0.235553 0.033730 16.818917 0.037054 -2.165096 -5.559549 -0.017199 0.000000 -40.908899 9.043660 3.046451 3.086369 9.161394 20.599243 -72.906899 -8.548820 -6.546811 118.943312 -1.595798 -0.239245 21.392492 0.735200 -0.000000 -72.113500
0.599170 17.533132 2.245001 -12.345839 -27.647902 26.787666 -12.108090 -0.697541 5.509567 8.974544 -22.152511 -25.968546 -0.020608 0.084901 17.129389 0.064317 -1.991816 -5.564075 -0.015600 -0.000001 -41.403699 8.730952 3.163666 3.093136 8.436786 20.543005 -74.997776 -8.977795 -6.642899 120.841431 -1.502283 0.714271 21.635631 1.184200 -0.000001 -72.093999
0.651068 17.552725 2.269566 -13.650642 -27.252844 27.626623 -12.520612 -0.849073 5.515844 10.604080 -21.850327 -26.325462 0.198688 0.140940 17.414050 0.090562 -1.824165 -5.526918 -0.014600 0.000000 -41.924400 8.396757 3.272352 3.087806 7.583415 20.353245 -77.022141 -9.367041 -6.719731 122.514287 -1.422711 1.553093 21.905806 1.586000 0.000000 -72.165600
